<mxfile host="app.diagrams.net" modified="2021-09-13T14:58:04.812Z" agent="5.0 (Windows)" etag="qBGvdIanalxCRF94vZUc" version="15.2.4" type="github">
  <diagram id="jUIsPN_Rd4B1Ow-f5wSF" name="Page-1">
    <mxGraphModel dx="813" dy="453" grid="1" gridSize="10" guides="1" tooltips="1" connect="1" arrows="1" fold="1" page="1" pageScale="1" pageWidth="827" pageHeight="1169" math="0" shadow="0">
      <root>
        <mxCell id="0" />
        <mxCell id="1" parent="0" />
        <mxCell id="oOhGChT_8FKwYyUggt1s-6" style="edgeStyle=orthogonalEdgeStyle;rounded=0;orthogonalLoop=1;jettySize=auto;html=1;exitX=1;exitY=0.25;exitDx=0;exitDy=0;entryX=0.007;entryY=0.282;entryDx=0;entryDy=0;entryPerimeter=0;fillColor=#dae8fc;strokeColor=#6c8ebf;" edge="1" parent="1" source="oOhGChT_8FKwYyUggt1s-1" target="oOhGChT_8FKwYyUggt1s-2">
          <mxGeometry relative="1" as="geometry">
            <Array as="points">
              <mxPoint x="320" y="345" />
            </Array>
          </mxGeometry>
        </mxCell>
        <mxCell id="oOhGChT_8FKwYyUggt1s-1" value="&lt;font style=&quot;font-size: 28px&quot;&gt;使用者&lt;br&gt;&lt;/font&gt;" style="rounded=0;whiteSpace=wrap;html=1;" vertex="1" parent="1">
          <mxGeometry x="130" y="330" width="120" height="60" as="geometry" />
        </mxCell>
        <mxCell id="oOhGChT_8FKwYyUggt1s-14" style="edgeStyle=orthogonalEdgeStyle;rounded=0;orthogonalLoop=1;jettySize=auto;html=1;exitX=1;exitY=0.25;exitDx=0;exitDy=0;entryX=0.015;entryY=0.21;entryDx=0;entryDy=0;entryPerimeter=0;fillColor=#dae8fc;strokeColor=#6c8ebf;" edge="1" parent="1" source="oOhGChT_8FKwYyUggt1s-2" target="oOhGChT_8FKwYyUggt1s-10">
          <mxGeometry relative="1" as="geometry" />
        </mxCell>
        <mxCell id="oOhGChT_8FKwYyUggt1s-16" style="edgeStyle=orthogonalEdgeStyle;rounded=0;orthogonalLoop=1;jettySize=auto;html=1;exitX=0;exitY=0.75;exitDx=0;exitDy=0;entryX=1;entryY=0.75;entryDx=0;entryDy=0;fontSize=23;fillColor=#d5e8d4;strokeColor=#82b366;" edge="1" parent="1" source="oOhGChT_8FKwYyUggt1s-2" target="oOhGChT_8FKwYyUggt1s-1">
          <mxGeometry relative="1" as="geometry">
            <Array as="points">
              <mxPoint x="390" y="375" />
            </Array>
          </mxGeometry>
        </mxCell>
        <mxCell id="oOhGChT_8FKwYyUggt1s-19" style="rounded=0;orthogonalLoop=1;jettySize=auto;html=1;exitX=0.25;exitY=0;exitDx=0;exitDy=0;fontSize=23;dashed=1;fillColor=#f8cecc;strokeColor=#b85450;" edge="1" parent="1" source="oOhGChT_8FKwYyUggt1s-2">
          <mxGeometry relative="1" as="geometry">
            <mxPoint x="370" y="260" as="targetPoint" />
          </mxGeometry>
        </mxCell>
        <mxCell id="oOhGChT_8FKwYyUggt1s-20" style="edgeStyle=none;rounded=0;orthogonalLoop=1;jettySize=auto;html=1;exitX=0.75;exitY=0;exitDx=0;exitDy=0;dashed=1;fontSize=23;fillColor=#f8cecc;strokeColor=#b85450;" edge="1" parent="1" source="oOhGChT_8FKwYyUggt1s-2">
          <mxGeometry relative="1" as="geometry">
            <mxPoint x="480" y="260" as="targetPoint" />
          </mxGeometry>
        </mxCell>
        <mxCell id="oOhGChT_8FKwYyUggt1s-21" style="edgeStyle=none;rounded=0;orthogonalLoop=1;jettySize=auto;html=1;exitX=0.25;exitY=1;exitDx=0;exitDy=0;dashed=1;fontSize=23;fillColor=#f8cecc;strokeColor=#b85450;" edge="1" parent="1" source="oOhGChT_8FKwYyUggt1s-2">
          <mxGeometry relative="1" as="geometry">
            <mxPoint x="370" y="460" as="targetPoint" />
          </mxGeometry>
        </mxCell>
        <mxCell id="oOhGChT_8FKwYyUggt1s-22" style="edgeStyle=none;rounded=0;orthogonalLoop=1;jettySize=auto;html=1;exitX=0.75;exitY=1;exitDx=0;exitDy=0;dashed=1;fontSize=23;fillColor=#f8cecc;strokeColor=#b85450;" edge="1" parent="1" source="oOhGChT_8FKwYyUggt1s-2">
          <mxGeometry relative="1" as="geometry">
            <mxPoint x="480" y="460" as="targetPoint" />
          </mxGeometry>
        </mxCell>
        <mxCell id="oOhGChT_8FKwYyUggt1s-2" value="" style="shape=image;verticalLabelPosition=bottom;labelBackgroundColor=#ffffff;verticalAlign=top;aspect=fixed;imageAspect=0;image=https://upload.wikimedia.org/wikipedia/commons/thumb/4/41/LINE_logo.svg/1024px-LINE_logo.svg.png;" vertex="1" parent="1">
          <mxGeometry x="390" y="325" width="70" height="70" as="geometry" />
        </mxCell>
        <mxCell id="oOhGChT_8FKwYyUggt1s-7" value="傳送資訊" style="text;html=1;strokeColor=none;fillColor=none;align=center;verticalAlign=middle;whiteSpace=wrap;rounded=0;" vertex="1" parent="1">
          <mxGeometry x="510" y="325" width="50" height="20" as="geometry" />
        </mxCell>
        <mxCell id="oOhGChT_8FKwYyUggt1s-15" style="edgeStyle=orthogonalEdgeStyle;rounded=0;orthogonalLoop=1;jettySize=auto;html=1;exitX=0;exitY=0.75;exitDx=0;exitDy=0;entryX=0.997;entryY=0.703;entryDx=0;entryDy=0;entryPerimeter=0;fontSize=23;fillColor=#d5e8d4;strokeColor=#82b366;" edge="1" parent="1" source="oOhGChT_8FKwYyUggt1s-10" target="oOhGChT_8FKwYyUggt1s-2">
          <mxGeometry relative="1" as="geometry" />
        </mxCell>
        <mxCell id="oOhGChT_8FKwYyUggt1s-10" value="&lt;div style=&quot;font-size: 23px;&quot;&gt;File Keeper&lt;/div&gt;" style="rounded=0;whiteSpace=wrap;html=1;fontSize=23;" vertex="1" parent="1">
          <mxGeometry x="600" y="330" width="120" height="60" as="geometry" />
        </mxCell>
        <mxCell id="oOhGChT_8FKwYyUggt1s-13" value="傳送資訊" style="text;html=1;strokeColor=none;fillColor=none;align=center;verticalAlign=middle;whiteSpace=wrap;rounded=0;" vertex="1" parent="1">
          <mxGeometry x="310" y="325" width="50" height="20" as="geometry" />
        </mxCell>
        <mxCell id="oOhGChT_8FKwYyUggt1s-17" value="&lt;font style=&quot;font-size: 12px&quot;&gt;回覆&lt;br&gt;&lt;/font&gt;" style="text;html=1;align=center;verticalAlign=middle;resizable=0;points=[];autosize=1;strokeColor=none;fillColor=none;fontSize=23;" vertex="1" parent="1">
          <mxGeometry x="515" y="360" width="40" height="40" as="geometry" />
        </mxCell>
        <mxCell id="oOhGChT_8FKwYyUggt1s-18" value="&lt;font style=&quot;font-size: 12px&quot;&gt;回覆&lt;br&gt;&lt;/font&gt;" style="text;html=1;align=center;verticalAlign=middle;resizable=0;points=[];autosize=1;strokeColor=none;fillColor=none;fontSize=23;" vertex="1" parent="1">
          <mxGeometry x="315" y="360" width="40" height="40" as="geometry" />
        </mxCell>
        <mxCell id="oOhGChT_8FKwYyUggt1s-23" value="其他企業" style="text;html=1;align=center;verticalAlign=middle;whiteSpace=wrap;rounded=0;fontSize=16;fontColor=#FF0000;" vertex="1" parent="1">
          <mxGeometry x="362.5" y="280" width="125" height="20" as="geometry" />
        </mxCell>
        <mxCell id="oOhGChT_8FKwYyUggt1s-24" value="其他企業" style="text;html=1;align=center;verticalAlign=middle;whiteSpace=wrap;rounded=0;fontSize=16;fontColor=#FF0000;" vertex="1" parent="1">
          <mxGeometry x="362.5" y="420" width="125" height="20" as="geometry" />
        </mxCell>
      </root>
    </mxGraphModel>
  </diagram>
</mxfile>
